# xmcd CD database file
#
# Track frame offsets:
#	150
#	35245
#	60416
#	81512
#	115389
#	137844
#	155585
#	188812
#	212578
#	241908
#	275417
#	309470
#	328771
#	344969
#
# Disc length: 4780 seconds
#
# Revision: 0
# Processed by: cddbd v1.5.1PL2 Copyright (c) Steve Scherf et al.
# Submitted via: Feurio! 1.68 - http://www.feurio.com
#
DISCID=da12aa0e
DTITLE=Champion Jack Dupree - Live with the Big Town Playboys
DYEAR=1900
DGENRE=Blues
TTITLE0=In The Evenin'
TTITLE1=I Used To Love You
TTITLE2=Sweet Little Baby
TTITLE3=Freedom Blues
TTITLE4=Wine, Wine, Wine
TTITLE5=Lawdy, Lawdy
TTITLE6=Junkers Blues
TTITLE7=One Scotch, One Bourbon, One Beer
TTITLE8=Rock The Boogie Woogie
TTITLE9=Bring Me Flowers When I'm Living
TTITLE10=I Keep On Drifting
TTITLE11=She's Gone
TTITLE12=* Found My Baby Gone
TTITLE13=* You're the One
EXTD=
EXTT0=
EXTT1=
EXTT2=
EXTT3=
EXTT4=
EXTT5=
EXTT6=
EXTT7=
EXTT8=
EXTT9=
EXTT10=
EXTT11=
EXTT12=
EXTT13=
PLAYORDER=
